Coordinates
version=1
nRows=11
nColumns=63
inDegrees=yes

Units are S.I. units (second, meters, Newtons, ...)
If the header above contains a line with 'inDegrees', this indicates whether rotational values are in degrees (yes) or radians (no).

endheader
time	pelvis_tilt	pelvis_list	pelvis_rotation	pelvis_tx	pelvis_ty	pelvis_tz	hip_flexion_r	hip_adduction_r	hip_rotation_r	knee_angle_r	knee_angle_r_beta	ankle_angle_r	subtalar_angle_r	mtp_angle_r	hip_flexion_l	hip_adduction_l	hip_rotation_l	knee_angle_l	knee_angle_l_beta	ankle_angle_l	subtalar_angle_l	mtp_angle_l	L5_S1_Flex_Ext	L5_S1_Lat_Bending	L5_S1_axial_rotation	L4_L5_Flex_Ext	L4_L5_Lat_Bending	L4_L5_axial_rotation	L3_L4_Flex_Ext	L3_L4_Lat_Bending	L3_L4_axial_rotation	L2_L3_Flex_Ext	L2_L3_Lat_Bending	L2_L3_axial_rotation	L1_L2_Flex_Ext	L1_L2_Lat_Bending	L1_L2_axial_rotation	L1_T12_Flex_Ext	L1_T12_Lat_Bending	L1_T12_axial_rotation	Abs_r3	Abs_r2	Abs_r1	Abs_t1	Abs_t2	neck_flexion	neck_bending	neck_rotation	arm_flex_r	arm_add_r	arm_rot_r	elbow_flex_r	pro_sup_r	wrist_flex_r	wrist_dev_r	arm_flex_l	arm_add_l	arm_rot_l	elbow_flex_l	pro_sup_l	wrist_flex_l	wrist_dev_l
     60.24000000	     34.92689962	    -11.74698971	   -168.10728741	      5.69144716	      0.89656965	     -4.70759935	     49.91895735	     -9.64473202	      1.66317000	     97.11973065	      1.69505907	     32.63996765	     -0.60274569	     11.85950909	     49.51194356	    -16.04788781	     -1.82935346	    102.22881301	      1.78422938	     33.25801650	     -4.74389970	     20.57759664	    -10.11323967	      1.19752486	      0.19035017	    -18.78129740	      1.59270806	      0.20224706	    -16.61504146	      2.91166194	      0.20224706	    -11.55842162	      2.91166194	      0.16655640	     -9.39115436	      2.44199269	      0.15465952	     -5.77870515	      1.85496601	      0.14276263	    -72.23785967	     13.54664072	      1.05867057	      0.00000000	      0.00000000	     27.41783099	     -1.05573786	     11.03211709	     16.65217359	    -35.27695382	    -16.67294766	    102.39589076	     85.79150715	     -9.75395534	      4.82818192	     26.23710790	    -30.51084854	     -3.87244052	     79.01974968	     83.10163851	     -7.53230237	      0.39202429
     60.32000000	     29.07176328	    -48.26921235	   -129.33027026	      4.90942170	      0.76283066	     -3.82966211	     33.92130013	    -14.36061095	     -8.13880772	     98.63949711	      1.72158400	      6.67977163	    -14.67494975	     -9.66357848	     35.87178972	     -1.31145295	     -0.82910210	     93.78468523	      1.63685155	     11.86970936	     -8.54414640	    -14.08532380	    -11.84190342	     -0.11773513	      0.51367970	    -21.99159884	     -0.15658773	      0.54578468	    -19.45506313	     -0.28626120	      0.54578468	    -13.53411142	     -0.28626120	      0.44946973	    -10.99639152	     -0.24008549	      0.41736475	     -6.76646361	     -0.18237172	      0.38525977	    -84.58553194	     -1.33184338	      2.85693237	      0.00000000	      0.00000000	     20.73208057	     -1.24514091	     14.10882646	     33.68628804	    -22.87998279	     11.09085624	     80.75400332	    100.38263905	      2.79838508	     25.69923662	     20.00379714	    -25.06984887	     18.24791754	     99.81096918	    101.92974200	     -5.98284501	     25.55188515
     60.40000000	     32.55668353	    -13.17605981	   -164.66234077	      4.20519932	      0.90508349	     -3.07475524	     49.44472208	     -9.74766724	      1.87953266	     99.06817567	      1.72906585	     28.10283826	     -3.19788501	     19.15288265	     48.94068310	    -13.23975642	     -2.40459860	    101.04448203	      1.76355890	     27.83985759	     -7.17615889	     22.63162302	    -10.47245292	      0.23015992	     -0.43161829	    -19.44839232	      0.30611270	     -0.45859444	    -17.20519290	      0.55961084	     -0.45859444	    -11.96896644	      0.55961084	     -0.37766601	     -9.72471978	      0.46934212	     -0.35068986	     -5.98395960	      0.35651772	     -0.32371372	    -74.80368397	      2.60361508	     -2.40053146	      0.00000000	      0.00000000	     28.03447207	      2.35244152	     16.27604610	     21.90039422	    -38.11094024	    -12.00288806	     98.13705087	     90.37081127	     -9.82280655	      0.61214737	     27.44992921	    -35.60080833	     -4.86709733	     79.91993222	     88.00503795	     -6.13092657	     -3.24029833
     60.48000000	     34.30313050	    -11.38318936	   -164.88222256	      4.14169216	      0.90937006	     -2.98272477	     52.02733024	    -14.01002249	      3.24923052	     99.02253265	      1.72826923	     28.43775279	     -2.13082893	     22.98944156	     50.91544566	    -13.73778347	     -2.72992801	    103.17515067	      1.80074609	     27.95143921	     -6.16436387	     23.86601129	    -10.47382364	      0.03500554	     -0.72154719	    -19.45093789	      0.04655737	     -0.76664389	    -17.20744486	      0.08511247	     -0.76664389	    -11.97053304	      0.08511247	     -0.63135379	     -9.72599264	      0.07138329	     -0.58625710	     -5.98474283	      0.05422358	     -0.54116040	    -74.81347490	      0.39598965	     -4.01302903	      0.00000000	      0.00000000	     28.14373481	      6.10350545	     19.72790098	     22.31965647	    -45.11362313	    -10.64370696	     94.34735702	     86.79862662	    -11.38458203	     -5.08490292	     29.95354928	    -39.22632371	     -5.01365884	     77.75052084	     88.01050695	     -6.60203878	     -6.02798258
     60.56000000	     33.46474724	    -18.21825311	   -157.90641003	      3.32520408	      0.90494051	     -2.29245175	     49.62249760	    -13.36157433	      3.61814430	     98.72848170	      1.72313707	     27.34462387	     -2.06496460	     22.12010398	     47.08329908	    -12.85964653	     -4.13563149	     97.25727858	      1.69745973	     24.26899104	     -6.45146203	     23.49054648	    -10.74748881	     -0.67061268	     -1.15081188	    -19.95916148	     -0.89191486	     -1.22273762	    -17.65704937	     -1.63052767	     -1.22273762	    -12.28330497	     -1.63052767	     -1.00696039	     -9.98011811	     -1.36751337	     -0.93503465	     -6.14111511	     -1.03877904	     -0.86310891	    -76.76823785	     -7.58610474	     -6.40047042	      0.00000000	      0.00000000	     27.67885062	      4.56493507	     21.79111201	     11.74157161	    -42.25996460	    -15.32504669	     94.73872750	     87.12200421	     -9.95829309	      1.55590532	     29.25209530	    -36.99975517	     -4.50312369	     80.92103472	     90.77222579	     -6.66166412	      0.49375841
     60.64000000	     36.13713294	    -16.86796723	   -155.91834180	      3.34914385	      0.91076412	     -2.20156685	     50.92560702	    -14.98673701	      3.79609357	     96.20635486	      1.67911765	     29.27925825	     -0.82592730	     21.39383483	     47.12664301	    -12.63846333	     -4.89378597	     94.53440751	      1.64993667	     24.45149354	     -5.81427021	     23.08611832	    -10.64264435	     -0.85581876	     -1.38252947	    -19.76445482	     -1.13823895	     -1.46893756	    -17.48480040	     -2.08083772	     -1.46893756	    -12.16347823	     -2.08083772	     -1.20971328	     -9.88275954	     -1.74518561	     -1.12330519	     -6.08120698	     -1.32566325	     -1.03689710	    -76.01934433	     -9.68119293	     -7.68921413	      0.00000000	      0.00000000	     27.48118745	      5.20068425	     26.05401830	      3.94794000	    -41.55478824	    -20.12408452	     91.59072617	     85.67021873	    -10.84740788	     -2.04745890	     29.06447102	    -40.10573654	     -4.14038418	     81.63971197	     90.73221905	     -7.01214492	      0.35265806
     60.72000000	     44.38663491	    -15.47066872	   -146.49722525	      3.39358219	      0.91318371	     -2.27602404	     55.36576413	    -19.61078980	      4.47107904	     97.53803126	      1.70235979	     29.39849870	     -1.96866686	     20.69485356	     50.88396219	    -12.36816738	     -5.14849167	     92.97818966	      1.62277554	     24.72443498	     -2.53061827	     21.77822991	     -9.69474638	     -1.33086900	     -0.64206141	    -18.00411351	     -1.77005577	     -0.68219025	    -15.92749883	     -3.23587488	     -0.68219025	    -11.08012564	     -3.23587488	     -0.56180374	     -9.00254149	     -2.71390806	     -0.52167490	     -5.53957808	     -2.06151608	     -0.48154606	    -69.24860394	    -15.05505627	     -3.57095295	      0.00000000	      0.00000000	     27.10050892	      2.28982179	     25.30437376	     -4.21841722	    -38.24900844	     -3.10552027	    101.24804480	     85.28328272	     -5.57454671	      1.07337404	     27.56290578	    -36.82094668	      1.75932686	     86.69765024	     91.70238718	     -7.61860865	      5.60478315
     60.80000000	     47.46901670	     -9.86869828	   -147.74516732	      3.24068290	      0.93666062	     -2.17598315	     55.09616017	    -21.57973320	      3.35194795	     92.88305970	      1.62111521	     32.15052820	     -1.86416036	     21.74982351	     51.02702260	    -13.25711304	     -2.25645882	     89.21892244	      1.55716395	     26.34160850	     -2.97104016	     22.09560497	     -8.84489994	     -1.16145675	     -0.61269727	    -16.42586369	     -1.54473747	     -0.65099085	    -14.53128612	     -2.82396593	     -0.65099085	    -10.10883615	     -2.82396593	     -0.53611011	     -8.21337409	     -2.36844259	     -0.49781653	     -5.05397583	     -1.79909650	     -0.45952295	    -63.17823581	    -13.13863099	     -3.40763839	      0.00000000	      0.00000000	     27.43262930	      3.43074224	     26.58775697	     -8.19063893	    -35.32673130	     -3.91326008	     88.25534166	     75.57336341	     -3.99992105	      1.80703471	     25.05525330	    -37.56722388	      0.40745437	     82.48946864	     88.70295992	     -8.70037830	      5.46041375
     60.88000000	     54.45403273	     -5.77052965	   -141.01655990	      3.36362701	      0.97453679	     -2.22137285	     51.46254678	    -20.60611351	     -0.12227415	     86.50192437	      1.50974339	     32.81155511	     -2.55384777	     21.23597496	     49.89314341	    -12.92183511	     -4.26090673	     79.96667382	      1.39568175	     25.12171890	     -1.88991286	     21.81293738	     -7.29254521	     -1.49935536	     -0.09139485	    -13.54298572	     -1.99414263	     -0.09710703	    -11.98092253	     -3.64553263	     -0.09710703	     -8.33464993	     -3.64553263	     -0.07997049	     -6.77185749	     -3.05748546	     -0.07425832	     -4.16696034	     -2.32250146	     -0.06854614	    -52.08992121	    -16.96100773	     -0.50831074	      0.00000000	      0.00000000	     27.52233402	      4.40297985	     24.40077544	     -6.15681903	    -36.90728549	      7.17877237	     86.71658262	     76.46708495	     -3.43911215	      5.08329673	     16.41007469	    -36.43498251	      2.27044237	     71.73183281	     89.40681202	     -9.60929546	      7.62958163
     60.96000000	     56.39458539	     -0.16640892	   -138.82643185	      3.28294811	      1.05063855	     -2.08588353	     35.67113709	    -20.27591933	     -8.76531923	     67.54940271	      1.17895949	     32.28108382	     -2.95346445	     20.68572359	     39.23897701	    -14.49132485	     -3.26282927	     68.08012539	      1.18822234	     25.43991737	     -3.10362254	     20.68875893	     -6.25662690	     -0.98773342	     -0.21648806	    -11.61918182	     -1.31368545	     -0.23001856	    -10.27901234	     -2.40157505	     -0.23001856	     -7.15069889	     -2.40157505	     -0.18942705	     -5.80990374	     -2.01418600	     -0.17589655	     -3.57503661	     -1.52999907	     -0.16236605	    -44.69046030	    -11.17343804	     -1.20404165	      0.00000000	      0.00000000	     26.94690771	      3.37143587	     23.18380742	    -11.51776493	    -35.52082952	     -0.77760647	     82.97726569	     74.69669864	      0.89951987	      5.29309838	     12.63232312	    -38.01618476	      4.07411008	     70.08735142	     88.39370018	     -9.23357597	     11.14348463
     61.04000000	     53.80230176	     -1.27506570	   -132.65121126	      3.20733089	      1.08679847	     -2.10169208	     24.43911796	    -17.63076459	    -13.54887668	     57.00095029	      0.99485426	     30.18602618	     -4.98268783	     17.19618417	     31.34351812	    -20.22532956	     -7.07573694	     60.67607345	      1.05899726	     20.84164504	     -3.16755995	     17.77038055	     -5.69344444	     -0.85405206	      0.04366032	    -10.57329567	     -1.13588924	      0.04638909	     -9.35375987	     -2.07654219	      0.04638909	     -6.50703765	     -2.07654219	      0.03820278	     -5.28693251	     -1.74158297	      0.03547401	     -3.25323415	     -1.32292665	      0.03274524	    -40.66770429	     -9.66120775	      0.24282558	      0.00000000	      0.00000000	     26.59153771	      4.45899754	     21.64749969	    -15.29075973	    -32.96783757	      0.20363400	     85.98486293	     71.77836083	     -0.35679157	     11.17672137	      7.18579958	    -36.68983490	      7.48142769	     68.04439851	     88.24111315	     -6.96874002	     18.90357300
